/*************************************************
 * GENERATED FROM: Kiss of death.mid
 * DO NOT EDIT THIS FILE MANUALLY
 *************************************************/
#pragma once
#include "pitches.h"

// The notes array (pitch macro names from pitches.h)
// REST macro is used for silence
int melody[] = {
  NOTE_A5,
  NOTE_A4,
  NOTE_E5,
  NOTE_GS5,
  NOTE_A4,
  NOTE_E5,
  NOTE_A5,
  NOTE_A4,
  NOTE_E5,
  NOTE_GS5,
  NOTE_A5,
  NOTE_A4,
  NOTE_E5,
  NOTE_GS5,
  NOTE_A4,
  NOTE_E5,
  NOTE_A5,
  NOTE_A4,
  NOTE_E5,
  NOTE_GS5,
  NOTE_A5,
  NOTE_A4,
  NOTE_E5,
  NOTE_GS5,
  NOTE_A4,
  NOTE_E5,
  NOTE_A5,
  NOTE_A4,
  NOTE_E5,
  NOTE_GS5,
  NOTE_A4,
  NOTE_E5,
  NOTE_A5,
  NOTE_A4,
  NOTE_B5,
  NOTE_A4,
  NOTE_A5,
  NOTE_A4,
  NOTE_E5,
  NOTE_GS5,
  NOTE_A4,
  NOTE_E5,
  NOTE_A5,
  NOTE_A4,
  NOTE_E5,
  NOTE_E6,
  NOTE_A4,
  NOTE_E5,
  NOTE_A5,
  NOTE_A4,
  NOTE_B5,
  NOTE_A4,
  NOTE_A5,
  NOTE_A4,
  NOTE_E5,
  NOTE_GS5,
  NOTE_A4,
  NOTE_E5,
  NOTE_A5,
  NOTE_A4,
  NOTE_E5,
  NOTE_GS5,
  NOTE_A4,
  NOTE_E5,
  NOTE_A5,
  NOTE_A4,
  NOTE_B5,
  NOTE_A4,
  NOTE_A5,
  NOTE_A4,
  NOTE_E5,
  NOTE_GS5,
  NOTE_A4,
  NOTE_E5,
  NOTE_A5,
  NOTE_A4,
  NOTE_E5,
  NOTE_GS5,
  NOTE_A4,
  NOTE_E5,
  NOTE_A5,
  NOTE_A4,
  NOTE_B5,
  NOTE_A4,
  NOTE_A5,
  NOTE_A4,
  NOTE_E5,
  NOTE_GS5,
  NOTE_A4,
  NOTE_E5,
  NOTE_A5,
  NOTE_A4,
  NOTE_E5,
  NOTE_GS5,
  NOTE_FS5,
  NOTE_GS5,
  NOTE_E6,
  NOTE_D6,
  NOTE_CS6,
  NOTE_F5,
  NOTE_F6,
  NOTE_E6,
  NOTE_C6,
  NOTE_E6,
  NOTE_F6,
  NOTE_E6,
  NOTE_C6,
  NOTE_F6,
  NOTE_F6,
  NOTE_E6,
  NOTE_C6,
  NOTE_G5,
  NOTE_F6,
  NOTE_E6,
  NOTE_F6,
  NOTE_F4,
  NOTE_E4,
  NOTE_E6,
  NOTE_C4,
  NOTE_A3,
  NOTE_F4,
  NOTE_F4,
  NOTE_E4,
  NOTE_G6,
  NOTE_G6,
  NOTE_A6,
  NOTE_C4,
  NOTE_E5,
  NOTE_E4,
  NOTE_C4,
  NOTE_C4,
  NOTE_AS3,
  NOTE_A3,
  NOTE_AS6,
  NOTE_A6,
  NOTE_A6,
  NOTE_C4,
  NOTE_F4,
  NOTE_E4,
  NOTE_C4,
  NOTE_A3,
  NOTE_F4,
  NOTE_E4,
  NOTE_C5,
  NOTE_E4,
  NOTE_C4,
  NOTE_C4,
  NOTE_F4,
  NOTE_E5,
  NOTE_A5,
  NOTE_AS5,
  NOTE_A5,
  NOTE_G5,
  NOTE_F5,
  NOTE_G5,
  NOTE_A5,
  NOTE_A5,
  NOTE_F6,
  NOTE_E6,
  NOTE_A5,
  NOTE_AS5,
  NOTE_A5,
  NOTE_G5,
  NOTE_F5,
  NOTE_A5,
  NOTE_F5,
  NOTE_F5,
  NOTE_F6,
  NOTE_E6,
  NOTE_A5,
  NOTE_AS5,
  NOTE_A5,
  NOTE_G5,
  NOTE_F5,
  NOTE_G5,
  NOTE_A5,
  NOTE_A5,
  NOTE_F6,
  NOTE_E6,
  NOTE_A5,
  NOTE_G5,
  NOTE_F5,
  NOTE_G5,
  NOTE_AS5,
  NOTE_A5,
  NOTE_C5,
  NOTE_F5,
  NOTE_G5,
  NOTE_C6,
  NOTE_F6,
  NOTE_F5,
  NOTE_F6,
  NOTE_E5,
  NOTE_E6,
  NOTE_F6,
  NOTE_AS4,
  NOTE_C5,
  NOTE_AS4,
  NOTE_A4,
  NOTE_G4,
  NOTE_F4,
  NOTE_E5,
  NOTE_F5,
  NOTE_C5,
  NOTE_D5,
  NOTE_C6,
  NOTE_AS5,
  NOTE_A5,
  NOTE_AS5,
  NOTE_C6,
  NOTE_C5,
  NOTE_E5,
  NOTE_C5,
  NOTE_F5,
  NOTE_C5,
  NOTE_E5,
  NOTE_C5,
  NOTE_F5,
  NOTE_C5,
  NOTE_C6,
  NOTE_AS5,
  NOTE_A5,
  NOTE_G5,
  NOTE_G5,
  NOTE_F5,
  NOTE_C5,
  NOTE_F5,
  NOTE_C5,
  NOTE_C6,
  NOTE_C5,
  NOTE_F5,
  NOTE_C5,
  NOTE_C6,
  NOTE_AS5,
  NOTE_A5,
  NOTE_AS5,
  NOTE_C6,
  NOTE_G5,
  NOTE_G5,
  NOTE_AS5,
  NOTE_AS5,
  NOTE_A5,
  NOTE_C5,
  NOTE_F5,
  NOTE_C5,
  NOTE_E5,
  NOTE_C5,
  NOTE_G5,
  NOTE_F5,
  NOTE_G4,
  NOTE_C5,
  NOTE_E5,
  NOTE_F5,
  NOTE_G5,
  NOTE_C6,
  NOTE_F6,
  NOTE_E6,
  NOTE_C6,
  NOTE_G5,
  NOTE_F5,
  NOTE_E5,
  NOTE_C5,
  NOTE_C5,
  NOTE_C5,
  NOTE_E5,
  NOTE_F4,
  NOTE_C5,
  NOTE_F5,
  NOTE_F4,
  NOTE_C5,
  NOTE_E5,
  NOTE_F4,
  NOTE_C5,
  NOTE_F5,
  NOTE_C5,
  NOTE_C5,
  NOTE_E5,
  NOTE_F4,
  NOTE_C5,
  NOTE_F5,
  NOTE_F4,
  NOTE_C5,
  NOTE_E5,
  NOTE_F4,
  NOTE_C5,
  NOTE_F5,
  NOTE_F4,
  NOTE_G5,
  NOTE_C5,
  NOTE_C5,
  NOTE_E5,
  NOTE_F4,
  NOTE_C5,
  NOTE_F5,
  NOTE_F4,
  NOTE_C5,
  NOTE_E5,
  NOTE_F4,
  NOTE_C5,
  NOTE_F5,
  NOTE_F4,
  NOTE_G5,
  NOTE_F4,
  NOTE_F5,
  NOTE_F4,
  NOTE_C5,
  NOTE_E5,
  NOTE_F4,
  NOTE_C5,
  NOTE_F5,
  NOTE_F4,
  NOTE_C5,
  NOTE_C6,
  NOTE_F4,
  NOTE_C5,
  NOTE_F5,
  NOTE_F4,
  NOTE_G5,
  NOTE_A4,
  NOTE_C5,
  NOTE_E5,
  NOTE_F4,
  NOTE_C5,
  NOTE_F5,
  NOTE_F4,
  NOTE_C5,
  NOTE_E5,
  NOTE_F4,
  NOTE_C5,
  NOTE_A4,
  NOTE_C5,
  NOTE_E5,
  NOTE_F4,
  NOTE_C5,
  NOTE_F5,
  NOTE_F4,
  NOTE_C5,
  NOTE_E5,
  NOTE_F4,
  NOTE_C5,
  NOTE_C5,
  NOTE_E5,
  NOTE_F4,
  NOTE_C5,
  NOTE_F5,
  NOTE_F4,
  NOTE_C5,
  NOTE_E5,
  NOTE_F4,
  NOTE_C5,
  NOTE_C6,
  NOTE_AS5,
  NOTE_A5,
  NOTE_A5,
  NOTE_F4,
  NOTE_E4,
  NOTE_E6,
  NOTE_C4,
  NOTE_A3,
  NOTE_F4,
  NOTE_F4,
  NOTE_E4,
  NOTE_G6,
  NOTE_G6,
  NOTE_A6,
  NOTE_C4,
  NOTE_E5,
  NOTE_E4,
  NOTE_C4,
  NOTE_C4,
  NOTE_AS3,
  NOTE_A3,
  NOTE_AS6,
  NOTE_A6,
  NOTE_A6,
  NOTE_C4,
  NOTE_F4,
  NOTE_E4,
  NOTE_C4,
  NOTE_A3,
  NOTE_F4,
  NOTE_E4,
  NOTE_C5,
  NOTE_E4,
  NOTE_C4,
  NOTE_C4,
  NOTE_F4,
  NOTE_E5,
  NOTE_A5,
  NOTE_AS5,
  NOTE_A5,
  NOTE_G5,
  NOTE_F5,
  NOTE_G5,
  NOTE_A5,
  NOTE_A5,
  NOTE_F6,
  NOTE_E6,
  NOTE_A5,
  NOTE_AS5,
  NOTE_A5,
  NOTE_G5,
  NOTE_F5,
  NOTE_A5,
  NOTE_F5,
  NOTE_F5,
  NOTE_F6,
  NOTE_E6,
  NOTE_A5,
  NOTE_AS5,
  NOTE_A5,
  NOTE_G5,
  NOTE_F5,
  NOTE_G5,
  NOTE_A5,
  NOTE_A5,
  NOTE_F6,
  NOTE_E6,
  NOTE_A5,
  NOTE_G5,
  NOTE_F5,
  NOTE_G5,
  NOTE_AS5,
  NOTE_A5,
  NOTE_C5,
  NOTE_F5,
  NOTE_G5,
  NOTE_C6,
  NOTE_F6,
  NOTE_F5,
  NOTE_F6,
  NOTE_E5,
  NOTE_E6,
  NOTE_F6,
  NOTE_AS4,
  NOTE_C5,
  NOTE_AS4,
  NOTE_A4,
  NOTE_G4,
  NOTE_F4,
  NOTE_E5,
  NOTE_F5,
  NOTE_C5,
  NOTE_D5,
  NOTE_C6,
  NOTE_AS5,
  NOTE_A5,
  NOTE_AS5,
  NOTE_C6,
  NOTE_C5,
  NOTE_E5,
  NOTE_C5,
  NOTE_F5,
  NOTE_C5,
  NOTE_E5,
  NOTE_C5,
  NOTE_F5,
  NOTE_C5,
  NOTE_C6,
  NOTE_AS5,
  NOTE_A5,
  NOTE_G5,
  NOTE_G5,
  NOTE_F5,
  NOTE_C5,
  NOTE_F5,
  NOTE_C5,
  NOTE_C6,
  NOTE_C5,
  NOTE_F5,
  NOTE_C5,
  NOTE_C6,
  NOTE_AS5,
  NOTE_A5,
  NOTE_AS5,
  NOTE_C6,
  NOTE_G5,
  NOTE_G5,
  NOTE_AS5,
  NOTE_AS5,
  NOTE_A5,
  NOTE_C5,
  NOTE_F5,
  NOTE_C5,
  NOTE_E5,
  NOTE_C5,
  NOTE_G5,
  NOTE_F5,
  NOTE_G4,
  NOTE_C5,
  NOTE_E5,
  NOTE_F5,
  NOTE_G5,
  NOTE_C6,
  NOTE_F6,
  NOTE_E6,
  NOTE_C6,
  NOTE_G5,
  NOTE_F5,
  NOTE_E5,
  NOTE_C5,
  NOTE_C5,
  NOTE_C5,
  NOTE_E5,
  NOTE_F4,
  NOTE_C5,
  NOTE_F5,
  NOTE_F4,
  NOTE_C5,
  NOTE_E5,
  NOTE_F4,
  NOTE_C5,
  NOTE_E5,
  NOTE_F4,
  NOTE_C5,
  NOTE_F5,
  NOTE_F4,
  NOTE_C5,
  NOTE_E5,
  NOTE_F4,
  NOTE_C5,
  NOTE_F5,
  NOTE_F4,
  NOTE_G5,
  NOTE_C5,
  NOTE_C5,
  NOTE_E5,
  NOTE_F4,
  NOTE_C5,
  NOTE_F5,
  NOTE_F4,
  NOTE_C5,
  NOTE_E5,
  NOTE_F4,
  NOTE_C5,
  NOTE_F5,
  NOTE_F4,
  NOTE_G5,
  NOTE_F4,
  NOTE_F5,
  NOTE_F4,
  NOTE_C5,
  NOTE_E5,
  NOTE_F4,
  NOTE_C5,
  NOTE_F5,
  NOTE_F4,
  NOTE_C5,
  NOTE_C6,
  NOTE_F4,
  NOTE_C5,
  NOTE_F5,
  NOTE_F4,
  NOTE_G5,
  NOTE_A4,
  NOTE_C5,
  NOTE_E5,
  NOTE_F4,
  NOTE_C5,
  NOTE_F5,
  NOTE_F4,
  NOTE_C5,
  NOTE_E5,
  NOTE_F4,
  NOTE_C5,
  NOTE_F5,
  NOTE_F4,
  NOTE_C5,
  NOTE_A4,
  NOTE_C5,
  NOTE_E5,
  NOTE_F4,
  NOTE_C5,
  NOTE_F5,
  NOTE_F4,
  NOTE_C5,
  NOTE_E5,
  NOTE_F4,
  NOTE_C5,
  NOTE_F5,
  NOTE_F4,
  NOTE_C5,
  NOTE_E5,
  NOTE_F4,
  NOTE_C5,
  NOTE_F5,
  NOTE_F4,
  NOTE_C5,
  NOTE_E5,
  NOTE_F4,
  NOTE_C5,
  NOTE_F5,
  NOTE_F4,
  NOTE_G5,
  NOTE_C6,
  NOTE_AS5,
  NOTE_A5,
  NOTE_A5,
  NOTE_F5,
  NOTE_C5,
  NOTE_E5,
  NOTE_C5,
  NOTE_F5,
  NOTE_C5,
  NOTE_E5,
  NOTE_C5,
  NOTE_F5,
  NOTE_C5,
  NOTE_E5,
  NOTE_C5,
  NOTE_F5,
  NOTE_C5,
  NOTE_E5,
  NOTE_C5,
  NOTE_F5
};

// The duration array in milliseconds (ms)
int noteDurationMs[] = {
  113,
  227,
  113,
  227,
  227,
  113,
  113,
  227,
  227,
  227,
  113,
  227,
  113,
  227,
  227,
  113,
  113,
  227,
  227,
  227,
  113,
  113,
  113,
  113,
  113,
  113,
  113,
  113,
  113,
  113,
  113,
  113,
  113,
  113,
  113,
  113,
  113,
  113,
  113,
  113,
  113,
  113,
  113,
  113,
  113,
  113,
  113,
  113,
  113,
  113,
  113,
  113,
  113,
  113,
  113,
  113,
  113,
  113,
  113,
  113,
  113,
  113,
  113,
  113,
  113,
  113,
  113,
  113,
  113,
  113,
  113,
  113,
  113,
  113,
  113,
  113,
  113,
  113,
  113,
  113,
  113,
  113,
  113,
  113,
  113,
  227,
  113,
  227,
  227,
  113,
  113,
  227,
  227,
  227,
  676,
  477,
  227,
  227,
  227,
  338,
  338,
  477,
  676,
  338,
  338,
  477,
  676,
  338,
  338,
  477,
  676,
  338,
  338,
  477,
  676,
  338,
  338,
  248,
  248,
  451,
  250,
  227,
  500,
  248,
  496,
  250,
  227,
  375,
  338,
  227,
  227,
  451,
  227,
  676,
  227,
  500,
  227,
  338,
  338,
  477,
  451,
  477,
  496,
  250,
  227,
  227,
  227,
  250,
  1902,
  227,
  227,
  227,
  477,
  451,
  477,
  451,
  588,
  338,
  227,
  227,
  227,
  227,
  477,
  451,
  477,
  451,
  588,
  338,
  227,
  227,
  227,
  227,
  477,
  451,
  477,
  451,
  588,
  338,
  227,
  227,
  227,
  227,
  477,
  451,
  477,
  227,
  113,
  113,
  227,
  227,
  125,
  248,
  125,
  477,
  676,
  227,
  113,
  338,
  477,
  451,
  227,
  338,
  338,
  477,
  227,
  338,
  338,
  477,
  451,
  477,
  113,
  227,
  113,
  227,
  113,
  227,
  113,
  227,
  227,
  338,
  338,
  477,
  451,
  477,
  338,
  113,
  227,
  113,
  227,
  113,
  227,
  227,
  338,
  338,
  477,
  451,
  701,
  227,
  701,
  227,
  477,
  338,
  113,
  227,
  113,
  227,
  113,
  227,
  477,
  113,
  113,
  113,
  113,
  113,
  113,
  113,
  113,
  113,
  113,
  113,
  113,
  227,
  227,
  113,
  113,
  113,
  113,
  113,
  113,
  113,
  113,
  113,
  113,
  227,
  477,
  113,
  113,
  113,
  113,
  113,
  113,
  113,
  113,
  113,
  113,
  113,
  113,
  227,
  227,
  113,
  113,
  113,
  113,
  113,
  113,
  113,
  113,
  113,
  113,
  113,
  113,
  113,
  113,
  113,
  113,
  113,
  113,
  113,
  113,
  113,
  113,
  113,
  113,
  113,
  113,
  113,
  113,
  227,
  227,
  113,
  113,
  227,
  113,
  113,
  113,
  227,
  227,
  227,
  125,
  227,
  113,
  113,
  227,
  113,
  113,
  113,
  227,
  227,
  227,
  125,
  113,
  113,
  227,
  113,
  113,
  113,
  227,
  227,
  227,
  125,
  338,
  338,
  750,
  451,
  338,
  338,
  248,
  248,
  451,
  250,
  227,
  500,
  248,
  496,
  250,
  227,
  375,
  338,
  227,
  227,
  451,
  227,
  676,
  227,
  500,
  227,
  338,
  338,
  375,
  451,
  602,
  496,
  250,
  227,
  227,
  227,
  250,
  1902,
  227,
  227,
  227,
  477,
  451,
  477,
  451,
  588,
  338,
  227,
  227,
  227,
  227,
  477,
  451,
  477,
  451,
  588,
  338,
  227,
  227,
  227,
  227,
  477,
  451,
  477,
  451,
  588,
  338,
  227,
  227,
  227,
  227,
  477,
  451,
  477,
  227,
  113,
  113,
  227,
  227,
  125,
  248,
  125,
  477,
  676,
  227,
  113,
  338,
  477,
  451,
  227,
  338,
  338,
  477,
  227,
  338,
  338,
  477,
  451,
  477,
  113,
  227,
  113,
  227,
  113,
  227,
  113,
  227,
  227,
  338,
  338,
  477,
  451,
  477,
  338,
  113,
  227,
  113,
  227,
  113,
  227,
  227,
  338,
  338,
  477,
  451,
  701,
  227,
  701,
  227,
  477,
  338,
  113,
  227,
  113,
  227,
  113,
  227,
  477,
  113,
  113,
  113,
  113,
  113,
  113,
  113,
  113,
  113,
  113,
  113,
  113,
  227,
  227,
  113,
  113,
  227,
  227,
  113,
  227,
  227,
  227,
  125,
  113,
  113,
  113,
  113,
  113,
  113,
  113,
  113,
  113,
  113,
  113,
  113,
  227,
  227,
  113,
  113,
  113,
  113,
  113,
  113,
  113,
  113,
  113,
  113,
  113,
  113,
  113,
  113,
  113,
  113,
  113,
  113,
  113,
  113,
  113,
  113,
  113,
  113,
  113,
  113,
  113,
  113,
  227,
  227,
  113,
  113,
  113,
  113,
  113,
  113,
  113,
  113,
  113,
  113,
  113,
  113,
  227,
  227,
  113,
  113,
  113,
  113,
  113,
  113,
  113,
  113,
  113,
  113,
  227,
  477,
  113,
  113,
  113,
  113,
  113,
  113,
  113,
  113,
  113,
  113,
  113,
  113,
  227,
  338,
  338,
  750,
  451,
  227,
  113,
  227,
  113,
  227,
  113,
  227,
  113,
  227,
  113,
  275,
  152,
  150,
  113,
  227,
  113,
  902
};

// This must be used as the pause between notes in the main .ino file
const int PAUSE_BETWEEN_NOTES_MS = 20; 

// Make sure both arrays have the same number of elements
const int MELODY_LENGTH = sizeof(melody) / sizeof(melody[0]);
