/*************************************************
 * GENERATED FROM: JonatanHaKatan.mid
 * DO NOT EDIT THIS FILE MANUALLY
 *
 * This file contains the C-arrays for the melody pitch and duration.
 * It is designed for use with the Arduino tone() function or ESP32 LEDC.
 * The pitches (e.g., NOTE_C4) are defined in 'pitches.h'.
 *************************************************/
#pragma once
#include "pitches.h"

// The notes array (pitch macro names from pitches.h)
// PROGMEM is used to store the data in Flash memory on Uno/Nano.
const int melody[] PROGMEM = {
    NOTE_G3,
    NOTE_E3,
    NOTE_E3,
    NOTE_F3,
    NOTE_D3,
    NOTE_D3,
    NOTE_C3,
    NOTE_D3,
    NOTE_E3,
    NOTE_F3,
    NOTE_G3,
    NOTE_G3,
    NOTE_G3,
    NOTE_G3,
    NOTE_E3,
    NOTE_E3,
    NOTE_F3,
    NOTE_D3,
    NOTE_D3,
    NOTE_C3,
    NOTE_G3,
    NOTE_E3,
    NOTE_E3,
    NOTE_C3,
    NOTE_D3,
    NOTE_D3,
    NOTE_D3,
    NOTE_D3,
    NOTE_D3,
    NOTE_E3,
    NOTE_F3,
    NOTE_E3,
    NOTE_E3,
    NOTE_E3,
    NOTE_E3,
    NOTE_E3,
    NOTE_F3,
    NOTE_G3,
    NOTE_G3,
    NOTE_E3,
    NOTE_E3,
    NOTE_F3,
    NOTE_D3,
    NOTE_D3,
    NOTE_C3,
    NOTE_G3,
    NOTE_E3,
    NOTE_E3
};

// The duration array in milliseconds (ms)
const int durations[] PROGMEM = {
    273,
    273,
    545,
    273,
    273,
    545,
    273,
    273,
    273,
    273,
    273,
    273,
    545,
    273,
    273,
    545,
    273,
    273,
    545,
    273,
    273,
    273,
    273,
    545,
    273,
    273,
    273,
    273,
    273,
    273,
    545,
    273,
    273,
    273,
    273,
    273,
    273,
    545,
    273,
    273,
    545,
    273,
    273,
    545,
    273,
    273,
    273,
    273
};

// The total number of notes in the melody (must match the lengths of both arrays)
const int melody_length = sizeof(melody) / sizeof(melody[0]);